# xmcd CD database file
#
# Track frame offsets:
#	150
#	17102
#	34642
#	48050
#	60962
#	73442
#	89895
#	105015
#	118885
#	135255
#	147792
#	166457
#	182635
#	199992
#	218735
#	232177
#	247750
#	267805
#	280547
#	294490
#
# Disc length: 4175 seconds
#
# Revision: 1
# Processed by: cddbd v1.5.2PL0 Copyright (c) Steve Scherf et al.
# Submitted via: CDex 1.70beta2
#
DISCID=1d104d14
DTITLE=THE COLLECTORS - 僕はコレクター
DYEAR=1987
DGENRE=Pop
TTITLE0=僕はコレクター
TTITLE1=TOO MUCH ROMANTIC!
TTITLE2=プ・ラ・モ・デ・ル
TTITLE3=1・2・3・4・5・6・7 DAYS A WEEK
TTITLE4=GO! GO! GO!
TTITLE5=僕は恐竜
TTITLE6=ロボット工場
TTITLE7=おかしな顔 (ファニー・フェイス)
TTITLE8=問題児
TTITLE9=恋のカレイドスコープ
TTITLE10=夢みる君と僕
TTITLE11=僕の時間機械
TTITLE12=僕はコレクター [Re-Mix/Neo GS Strings Version]
TTITLE13=夢みる君と僕 [45rpm]
TTITLE14=プ・ラ・モ・デ・ル [Re-Mix]
TTITLE15=NICK! NICK! NICK! [from Tokyo Mods Compilation "Dance"]
TTITLE16=TOO MUCH ROMANTIC! [Live'90/Previously Unreleased]
TTITLE17=プ・ラ・モ・デ・ル [Live'87/Previously Unreleased]
TTITLE18=おかしな顔 (ファニー・フェイス) [Live'87/Previously Unreleased]
TTITLE19=僕の時間機械 [Live'87]
EXTD=YEAR: 1987
EXTT0=
EXTT1=
EXTT2=
EXTT3=
EXTT4=
EXTT5=
EXTT6=
EXTT7=
EXTT8=
EXTT9=
EXTT10=
EXTT11=
EXTT12=
EXTT13=
EXTT14=
EXTT15=
EXTT16=
EXTT17=
EXTT18=
EXTT19=
PLAYORDER=
